<svg xmlns="http://www.w3.org/2000/svg" viewBox="0 0 375.7 145.6"><path d="M-224.8 134.3c-4.9 0-6.8-1.9-7.2-3.6-2.1 2.2-5.2 3.6-9.4 3.6-4.8 0-8.2-2.2-8.2-6.6 0-5.6 5-7.6 8.7-8 2.1-.3 4.2-.5 5.7-.6 1.3-.1 3.5-.5 4.5-.6l.1-.5c.1-.3.1-.7.1-.8 0-1.3-1.3-2.5-4.8-2.5-3.2 0-5 .8-6.1 2.5l-5-1.7c2-3.2 5.3-5 11.9-5 3.8 0 9.4.8 9.4 6.1 0 .5 0 1-.1 1.7l-1.2 7.7c-.1.7-.2 1.4-.2 2 0 1.3 1.4 1.9 3.2 1.9 4.4 0 6.5-4.7 6.5-9.5 0-10.6-8.1-16-19.3-16-11.8 0-20.2 8.2-20.2 18.2 0 10.7 8.4 18.3 20.2 18.3 5.5 0 9.3-.6 12.1-1.7l1.6 4.7c-2.8 1-7.4 1.9-13.7 1.9-14.7 0-25.5-9.7-25.5-23.2 0-12.7 10.7-23.1 25.5-23.1 14 0 24.6 7.8 24.6 20.9-.1 9.8-6.4 13.9-13.2 13.9zm-15.3-10.4c-2.5.4-3.9 1.8-3.9 3.6 0 1.6 1.4 2.6 4.3 2.6 3.9 0 7.5-2.2 8-4.8l.5-2.7c-2.2.4-6 .8-8.9 1.3zm63.3 15.5v-18.2c0-3.9-.5-5.6-1.9-7-1.5-1.5-3.6-2.3-6.9-2.3-6.9 0-11.6 4.8-11.6 11v16.5h-6.7V95.1h6.7v17.1c2.5-3.2 6-6 12.9-6 4.4 0 7.2.8 10 2.9 2.7 1.9 4.2 5.6 4.2 10v20.3h-6.7zm31.9.7c-13.4 0-18.6-8-18.6-16.9 0-8.8 5.2-16.9 18.6-16.9 13.4 0 18.6 8.2 18.6 16.9 0 8.8-5.2 16.9-18.6 16.9zm0-28.5c-8 0-11.5 5.6-11.5 11.6 0 6.1 3.5 11.4 11.5 11.4s11.4-5.3 11.4-11.4c.1-6-3.4-11.6-11.4-11.6zm77 27.8v-18.2c0-3.4-.2-5.4-1.6-6.9-1.4-1.6-3.7-2.3-6.5-2.3-6.6 0-10.9 4.7-10.9 11v16.5h-6.7v-18.2c0-3.4-.2-5.4-1.6-6.9-1.4-1.6-3.7-2.3-6.5-2.3-6.6 0-10.9 4.7-10.9 11v16.5h-6.7V107h6.6v5.9c2.5-3.4 5.8-6.5 12.5-6.5 3.8 0 6.7.8 9.5 2.9 1.2.9 2.1 2.1 2.7 3.6 2.7-3.4 6.9-6.5 13.4-6.5 3.8 0 6.8.8 9.6 2.9 2.7 2.1 3.8 5.2 3.8 9.6v20.7h-6.7zm47.4-13.6h-27c.3 5.2 4.3 8.9 10.9 8.9 5.1 0 7.4-1.4 8.6-3.7l6.9 1.5c-1.9 4.5-6.2 7.6-15.6 7.6-13.5 0-17.9-8-17.9-16.8 0-7.8 4.3-17.1 17.7-17.1 11.8 0 16.8 7.9 16.8 15.4.1 1.5-.1 3.1-.4 4.2zm-16.4-14.3c-7.2 0-10.1 4.6-10.5 9h20c-.2-4.7-3.3-9-9.5-9z" fill="#904800"/><path fill="#EB610A" d="M-249.5 9.1c-8.9-6.2-21.1-8.8-32.3-8.8-21.1 0-45.8 9-45.8 34.6 0 3.4.5 6.5 1.1 9.2-4.5 5-11.9 10-21.1 10-12.1 0-20.7-7.7-20.7-19.6 0-11 8.5-19.1 19.6-19.1 5.6 0 9.7 1.9 12 3.4l8.9-14.1c-4.4-2.2-13.1-5.4-24.6-5.4-21.7 0-43.2 11.7-43.2 35.3 0 23.5 19.4 35.5 42.5 35.5 14.7 0 26.5-7.3 33.1-14.6 8.6 9.3 23.3 13.8 38.2 13.8 10.9 0 23.2-2.4 32.3-8.7V9.1zm-32.4 45.1c-10.6 0-19.2-8.6-19.2-19.1 0-10.6 8.6-19.1 19.2-19.1s19.1 8.6 19.1 19.1c.1 10.6-8.5 19.1-19.1 19.1z"/><path fill="#F6A100" d="M-134.6 1.7c-1.8 0-3.4.2-5.1.3-7.9.9-14.1 3.7-18.8 7.1V2.8h-21.3V13C-188.7 4-204.6.3-217 .3h-.1c-11.3 0-23.5 2.6-32.5 8.9v51.3c8.9 6.2 21.1 8.8 32.5 8.8h.1c14.2 0 27.7-4.5 36.7-12.1v32h21.7V60.8c3.3 3.1 9.7 7 18.8 8.1 1.8.2 3.7.4 5.7.4 17.1 0 39.3-10.2 39.3-34.3.2-22.4-17.8-33.3-39.8-33.3zM-217 53.9c-10.6 0-19.1-8.6-19.1-19.1 0-10.6 8.6-19.2 19.1-19.2s19.1 8.6 19.1 19.2-8.5 19.1-19.1 19.1zm77.6 1.5h-.2c-10.8-.2-19.4-8.5-19.4-20.4 0-11.5 8.9-19.9 19.3-20h.2c11 0 19.3 8.8 19.3 19.8 0 10.6-8 20.6-19.2 20.6z"/><path fill="#CA4B08" d="M-249.4 60.6c-7.8-5.4-13.3-13.7-13.3-25.7 0-11.9 5.4-20.3 13.3-25.8 7.9 5.5 13.3 13.8 13.3 25.8s-5.5 20.3-13.3 25.7z"/><path d="M170.9 134.3c-4.9 0-6.8-1.9-7.2-3.6-2.1 2.2-5.2 3.6-9.4 3.6-4.8 0-8.2-2.2-8.2-6.6 0-5.6 5-7.6 8.7-8 2.1-.3 4.2-.5 5.7-.6 1.3-.1 3.5-.5 4.5-.6l.1-.5c.1-.3.1-.7.1-.8 0-1.3-1.3-2.5-4.8-2.5-3.2 0-5 .8-6.1 2.5l-5-1.7c2-3.2 5.3-5 11.9-5 3.8 0 9.4.8 9.4 6.1 0 .5 0 1-.1 1.7l-1.2 7.7c-.1.7-.2 1.4-.2 2 0 1.3 1.4 1.9 3.2 1.9 4.4 0 6.5-4.7 6.5-9.5 0-10.6-8.1-16-19.3-16-11.8 0-20.2 8.2-20.2 18.2 0 10.7 8.4 18.3 20.2 18.3 5.5 0 9.3-.6 12.1-1.7l1.6 4.7c-2.8 1-7.4 1.9-13.7 1.9-14.7 0-25.5-9.7-25.5-23.2 0-12.7 10.7-23.1 25.5-23.1 14 0 24.6 7.8 24.6 20.9-.1 9.8-6.4 13.9-13.2 13.9zm-15.3-10.4c-2.5.4-3.9 1.8-3.9 3.6 0 1.6 1.4 2.6 4.3 2.6 3.9 0 7.5-2.2 8-4.8l.5-2.7c-2.3.4-6.1.8-8.9 1.3zm63.3 15.5v-18.2c0-3.9-.5-5.6-1.9-7-1.5-1.5-3.6-2.3-6.9-2.3-6.9 0-11.6 4.8-11.6 11v16.5h-6.7V95.1h6.7v17.1c2.5-3.2 6-6 12.9-6 4.4 0 7.2.8 10 2.9 2.7 1.9 4.2 5.6 4.2 10v20.3h-6.7zm31.9.7c-13.4 0-18.6-8-18.6-16.9 0-8.8 5.2-16.9 18.6-16.9 13.4 0 18.6 8.2 18.6 16.9-.1 8.8-5.2 16.9-18.6 16.9zm0-28.5c-8 0-11.5 5.6-11.5 11.6 0 6.1 3.5 11.4 11.5 11.4s11.4-5.3 11.4-11.4c0-6-3.5-11.6-11.4-11.6zm77 27.8v-18.2c0-3.4-.2-5.4-1.6-6.9-1.4-1.6-3.7-2.3-6.5-2.3-6.6 0-10.9 4.7-10.9 11v16.5h-6.7v-18.2c0-3.4-.2-5.4-1.6-6.9-1.4-1.6-3.7-2.3-6.5-2.3-6.6 0-10.9 4.7-10.9 11v16.5h-6.7V107h6.6v5.9c2.5-3.4 5.8-6.5 12.5-6.5 3.8 0 6.7.8 9.5 2.9 1.2.9 2.1 2.1 2.7 3.6 2.7-3.4 6.9-6.5 13.4-6.5 3.8 0 6.8.8 9.6 2.9 2.7 2.1 3.8 5.2 3.8 9.6v20.7h-6.7zm47.4-13.6h-27c.3 5.2 4.3 8.9 10.9 8.9 5.1 0 7.4-1.4 8.6-3.7l6.9 1.5c-1.9 4.5-6.2 7.6-15.6 7.6-13.5 0-17.9-8-17.9-16.8 0-7.8 4.3-17.1 17.7-17.1 11.8 0 16.8 7.9 16.8 15.4.1 1.5-.1 3.1-.4 4.2zm-16.4-14.3c-7.2 0-10.1 4.6-10.5 9h20c-.2-4.7-3.3-9-9.5-9z" fill="#8E461C"/><path fill="#EA6631" d="M146.1 9.1C137.2 2.9 125 .3 113.8.3 92.7.3 68 9.3 68 34.9c0 3.4.5 6.5 1.1 9.2-4.5 5-11.9 10-21.1 10-12.1 0-20.7-7.7-20.7-19.6 0-11 8.5-19.1 19.6-19.1 5.6 0 9.7 1.9 12 3.4l8.9-14.1C63.4 2.5 54.7-.7 43.2-.7 21.5-.6 0 11.1 0 34.7c0 23.5 19.4 35.5 42.5 35.5 14.7 0 26.5-7.3 33.1-14.6 8.6 9.3 23.3 13.8 38.2 13.8 10.9 0 23.2-2.4 32.3-8.7V9.1zm-32.3 45.1c-10.6 0-19.2-8.6-19.2-19.1 0-10.6 8.6-19.1 19.2-19.1s19.1 8.6 19.1 19.1c0 10.6-8.5 19.1-19.1 19.1z"/><path fill="#F49C34" d="M261.1 1.7c-1.8 0-3.4.2-5.1.3-7.9.9-14.1 3.7-18.8 7.1V2.8h-21.3V13C207 4 191.1.3 178.7.3h-.1c-11.3 0-23.5 2.6-32.5 8.9v51.3c8.9 6.2 21.1 8.8 32.5 8.8h.1c14.2 0 27.7-4.5 36.7-12.1v32h21.7V60.8c3.3 3.1 9.7 7 18.8 8.1 1.8.2 3.7.4 5.7.4 17.1 0 39.3-10.2 39.3-34.3.1-22.4-17.8-33.3-39.8-33.3zm-82.4 52.2c-10.6 0-19.1-8.6-19.1-19.1 0-10.6 8.6-19.2 19.1-19.2s19.1 8.6 19.1 19.2-8.6 19.1-19.1 19.1zm77.5 1.5h-.2c-10.7-.2-19.3-8.5-19.3-20.4 0-11.5 8.9-19.9 19.3-20h.2c11 0 19.3 8.8 19.3 19.8 0 10.6-8 20.6-19.3 20.6z"/><path fill="#CC4D26" d="M146.2 60.6c-7.8-5.4-13.3-13.7-13.3-25.7 0-11.9 5.4-20.3 13.3-25.8 7.9 5.5 13.3 13.8 13.3 25.8s-5.4 20.3-13.3 25.7z"/></svg>